<?xml version="1.0" encoding="UTF-8"?>
<!-- Created with Inkscape (http://www.inkscape.org/) -->
<svg width="800" height="850" version="1.1" viewBox="0 0 800 850" xmlns="http://www.w3.org/2000/svg">
	<defs>
		<clipPath id="clipPath1257">
			<rect width="800" height="500" fill-opacity=".3"/>
		</clipPath>
	</defs>
	<rect width="800" height="850" fill="#fff" fill-opacity=".85"/>
	<g fill="none" stroke="#808080" stroke-linecap="round" stroke-linejoin="round" stroke-width="2">
		<path d="m200-1.4286e-7v500" stop-color="#000000" style="font-variation-settings:normal"/>
		<path d="m50 50h700" stop-color="#000000" style="font-variation-settings:normal"/>
		<path d="m50 450h700" stop-color="#000000" style="font-variation-settings:normal"/>
		<path d="m600-1.4286e-7v500" stop-color="#000000" style="font-variation-settings:normal"/>
	</g>
	<path d="m-686.04 1629.2h235.23v-736.86h306.08c408.11 0 685.85-184.21 685.85-575.32 0-408.11-280.57-546.98-697.18-546.98h-529.97zm235.23-929.58v-739.69h266.4c325.92 0 490.3 87.856 490.3 357.09 0 263.57-155.87 382.6-478.96 382.6z" clip-path="url(#clipPath1257)" fill-opacity=".3" stroke-width="7.0852"/>
	<g transform="translate(181.5 -145.27)">
		<path d="m217.6 393.27a1.1044 2 0 0 0-1.1044 2 1.1044 2 0 0 0 1.1044 2h293.49a1.1044 2 0 0 0 1.1044-2 1.1044 2 0 0 0-1.1044-2z" color="#000000" stroke-linecap="round" stroke-linejoin="round" stroke-width=".74309" style="-inkscape-stroke:none"/>
		<path d="m503.02 381.27a2 2 0 0 0-1.4141 0.58593 2 2 0 0 0 0 2.8281l10.586 10.586-10.586 10.586a2 2 0 0 0 0 2.8281 2 2 0 0 0 2.8281 0l13.414-13.414-13.414-13.414a2 2 0 0 0-1.4141-0.58593z" color="#000000" stroke-linecap="round" style="-inkscape-stroke:none"/>
		<g fill-rule="evenodd">
			<path d="m227.32 395.27c0 4.8706-3.9529 8.8235-8.8235 8.8235s-8.8235-3.9529-8.8235-8.8235 4.0588-8.8235 8.8235-8.8235c4.8706 0 8.8235 3.9529 8.8235 8.8235z" color="#000000" stroke-width="1.7647pt" style="-inkscape-stroke:none"/>
			<path d="m218.5 385.27c-5.4154 0-10 4.4758-10 10 0 5.5071 4.4929 10 10 10s10-4.4929 10-10-4.4929-10-10-10zm0 2.3516c4.234 0 7.6465 3.4144 7.6465 7.6484s-3.4124 7.6465-7.6465 7.6465-7.6465-3.4124-7.6465-7.6465c0-4.217 3.5325-7.6484 7.6465-7.6484z" color="#000000" style="-inkscape-stroke:none"/>
		</g>
	</g>
	<g transform="rotate(187.28 611.58 381.62)" fill="#ff981a" fill-rule="evenodd">
		<path d="m689.52 435.52 18.072 23.913-29.773 3.6825z" color="#000000" stroke-width="3pt" style="-inkscape-stroke:none"/>
		<path d="m689.03 431.55-1.3496 3.1856-13.055 30.787 36.652-4.5332zm0.98047 7.9336 13.896 18.387-22.893 2.8301z" color="#000000" style="-inkscape-stroke:none"/>
	</g>
	<path d="m532.59 200.82c5.3759 32.916 7.774 68.243 8.388 100.28" fill="none" stop-color="#000000" stroke="#ff981a" stroke-linejoin="round" stroke-width="4" style="font-variation-settings:normal"/>
	<circle cx="538.43" cy="250" r="10" fill="#e57e00"/>
	<path d="m293.42 200.82c7.3024 32.786 12.258 68.329 12.176 100.41" fill="none" stop-color="#000000" stroke="#ff981a" stroke-linejoin="round" stroke-width="4" style="font-variation-settings:normal"/>
	<circle cx="302.12" cy="250" r="10" fill="#e57e00"/>
	<g transform="rotate(-8.7286 -1156.5 2936.7)" fill="#ff981a" fill-rule="evenodd">
		<path d="m689.52 435.52 18.072 23.913-29.773 3.6825z" color="#000000" stroke-width="3pt" style="-inkscape-stroke:none"/>
		<path d="m689.03 431.55-1.3496 3.1856-13.055 30.787 36.652-4.5332zm0.98047 7.9336 13.896 18.387-22.893 2.8301z" color="#000000" style="-inkscape-stroke:none"/>
	</g>
	<g fill="none" stroke-linecap="round" stroke-linejoin="round">
		<path d="m50 800h150l400-150h150" stop-color="#000000" stroke="#001999" stroke-width="6" style="font-variation-settings:normal"/>
		<path d="m50 800h350v-150h350" stop-color="#000000" stroke="#090" stroke-dasharray="4, 12" stroke-width="4" style="font-variation-settings:normal"/>
		<g stroke="#000" stroke-width="4">
			<path d="m538.43 550h-338.43" stop-color="#000000" style="font-variation-settings:normal"/>
			<path d="m302.12 575h-102.12" stop-color="#000000" style="font-variation-settings:normal"/>
			<path d="m302.12 600h236.31" stop-color="#000000" style="font-variation-settings:normal"/>
		</g>
	</g>
	<g aria-label="-0.25">
		<path d="m210.28 277.52h9.52v-3.36h-9.52z"/>
		<path d="m231.72 286.4c5.28 0 8.64-4.72 8.64-13.32 0-8.56-3.36-13.08-8.64-13.08s-8.64 4.48-8.64 13.08 3.36 13.32 8.64 13.32zm0-3.6c-2.44 0-4.24-2.52-4.24-9.72s1.8-9.48 4.24-9.48c2.48 0 4.24 2.28 4.24 9.48s-1.76 9.72-4.24 9.72z"/>
		<path d="m247.52 286.4c1.68 0 2.96-1.32 2.96-3.12s-1.28-3.12-2.96-3.12-3 1.32-3 3.12 1.32 3.12 3 3.12z"/>
		<path d="m254.52 285.92h17.2v-3.92h-6.24c-1.24 0-2.92 0.16-4.24 0.28 5.04-5.32 9.24-9.96 9.24-14.48 0-4.72-3.16-7.8-8.04-7.8-3.48 0-5.8 1.44-8.12 3.92l2.56 2.56c1.36-1.52 3-2.84 4.96-2.84 2.72 0 4.2 1.72 4.2 4.4 0 3.88-4.44 8.36-11.52 15.2z"/>
		<path d="m283.16 286.4c4.68 0 8.96-3.2 8.96-8.76 0-5.48-3.64-7.96-8-7.96-1.32 0-2.28 0.32-3.36 0.84l0.52-6.16h9.6v-3.88h-13.6l-0.76 12.56 2.2 1.4c1.52-1 2.44-1.44 4.08-1.44 2.8 0 4.68 1.72 4.68 4.76 0 3.08-2.08 4.88-4.92 4.88-2.56 0-4.44-1.28-5.96-2.72l-2.12 2.96c1.88 1.88 4.56 3.52 8.68 3.52z"/>
	</g>
	<g aria-label="+0.85">
		<path d="m445.79 281.96h3.48v-7.56h7.16v-3.36h-7.16v-7.56h-3.48v7.56h-7.16v3.36h7.16z"/>
		<path d="m468.03 286.4c5.28 0 8.64-4.72 8.64-13.32 0-8.56-3.36-13.08-8.64-13.08s-8.64 4.48-8.64 13.08 3.36 13.32 8.64 13.32zm0-3.6c-2.44 0-4.24-2.52-4.24-9.72s1.8-9.48 4.24-9.48c2.48 0 4.24 2.28 4.24 9.48s-1.76 9.72-4.24 9.72z"/>
		<path d="m483.83 286.4c1.68 0 2.96-1.32 2.96-3.12s-1.28-3.12-2.96-3.12-3 1.32-3 3.12 1.32 3.12 3 3.12z"/>
		<path d="m499.59 286.4c5.16 0 8.6-3 8.6-6.92 0-3.4-2.04-5.28-4.4-6.6v-0.16c1.64-1.2 3.4-3.32 3.4-5.84 0-4.12-2.92-6.88-7.48-6.88-4.4 0-7.68 2.64-7.68 6.76 0 2.68 1.56 4.56 3.52 5.96v0.16c-2.4 1.28-4.6 3.36-4.6 6.52 0 4.12 3.68 7 8.64 7zm1.68-14.84c-2.84-1.12-5.12-2.24-5.12-4.8 0-2.2 1.52-3.48 3.48-3.48 2.36 0 3.76 1.64 3.76 3.88 0 1.6-0.76 3.04-2.12 4.4zm-1.6 11.56c-2.6 0-4.68-1.68-4.68-4.2 0-1.96 1.16-3.6 2.76-4.76 3.44 1.4 6.12 2.4 6.12 5.16 0 2.36-1.76 3.8-4.2 3.8z"/>
		<path d="m519.47 286.4c4.68 0 8.96-3.2 8.96-8.76 0-5.48-3.64-7.96-8-7.96-1.32 0-2.28 0.32-3.36 0.84l0.52-6.16h9.6v-3.88h-13.6l-0.76 12.56 2.2 1.4c1.52-1 2.44-1.44 4.08-1.44 2.8 0 4.68 1.72 4.68 4.76 0 3.08-2.08 4.88-4.92 4.88-2.56 0-4.44-1.28-5.96-2.72l-2.12 2.96c1.88 1.88 4.56 3.52 8.68 3.52z"/>
	</g>
	<g fill="#981b1b" aria-label="0.6">
		<path d="m384.18 231.89c5.28 0 8.64-4.72 8.64-13.32 0-8.56-3.36-13.08-8.64-13.08s-8.64 4.48-8.64 13.08 3.36 13.32 8.64 13.32zm0-3.6c-2.44 0-4.24-2.52-4.24-9.72s1.8-9.48 4.24-9.48c2.48 0 4.24 2.28 4.24 9.48s-1.76 9.72-4.24 9.72z"/>
		<path d="m399.98 231.89c1.68 0 2.96-1.32 2.96-3.12s-1.28-3.12-2.96-3.12-3 1.32-3 3.12 1.32 3.12 3 3.12z"/>
		<path d="m416.46 231.89c4.36 0 8-3.28 8-8.36 0-5.32-3.04-7.88-7.44-7.88-1.84 0-4.04 1.12-5.52 3 0.2-7.04 2.8-9.4 6-9.4 1.52 0 3.12 0.8 4.04 1.92l2.48-2.8c-1.52-1.6-3.72-2.88-6.8-2.88-5.2 0-10 4.08-10 13.96 0 8.56 4.24 12.44 9.24 12.44zm-0.08-3.52c-2.48 0-4.28-1.92-4.76-6.44 1.44-2.12 3.12-2.92 4.56-2.92 2.52 0 4 1.52 4 4.52 0 3.12-1.68 4.84-3.8 4.84z"/>
	</g>
	<g aria-label="+0.85">
		<path d="m605.58 556.57h2.61v-5.67h5.37v-2.52h-5.37v-5.67h-2.61v5.67h-5.37v2.52h5.37z"/>
		<path d="m622.26 559.9c3.96 0 6.48-3.54 6.48-9.99 0-6.42-2.52-9.81-6.48-9.81s-6.48 3.36-6.48 9.81 2.52 9.99 6.48 9.99zm0-2.7c-1.83 0-3.18-1.89-3.18-7.29s1.35-7.11 3.18-7.11c1.86 0 3.18 1.71 3.18 7.11s-1.32 7.29-3.18 7.29z"/>
		<path d="m634.11 559.9c1.26 0 2.22-0.99 2.22-2.34s-0.96-2.34-2.22-2.34-2.25 0.99-2.25 2.34 0.99 2.34 2.25 2.34z"/>
		<path d="m645.93 559.9c3.87 0 6.45-2.25 6.45-5.19 0-2.55-1.53-3.96-3.3-4.95v-0.12c1.23-0.9 2.55-2.49 2.55-4.38 0-3.09-2.19-5.16-5.61-5.16-3.3 0-5.76 1.98-5.76 5.07 0 2.01 1.17 3.42 2.64 4.47v0.12c-1.8 0.96-3.45 2.52-3.45 4.89 0 3.09 2.76 5.25 6.48 5.25zm1.26-11.13c-2.13-0.84-3.84-1.68-3.84-3.6 0-1.65 1.14-2.61 2.61-2.61 1.77 0 2.82 1.23 2.82 2.91 0 1.2-0.57 2.28-1.59 3.3zm-1.2 8.67c-1.95 0-3.51-1.26-3.51-3.15 0-1.47 0.87-2.7 2.07-3.57 2.58 1.05 4.59 1.8 4.59 3.87 0 1.77-1.32 2.85-3.15 2.85z"/>
		<path d="m660.84 559.9c3.51 0 6.72-2.4 6.72-6.57 0-4.11-2.73-5.97-6-5.97-0.99 0-1.71 0.24-2.52 0.63l0.39-4.62h7.2v-2.91h-10.2l-0.57 9.42 1.65 1.05c1.14-0.75 1.83-1.08 3.06-1.08 2.1 0 3.51 1.29 3.51 3.57 0 2.31-1.56 3.66-3.69 3.66-1.92 0-3.33-0.96-4.47-2.04l-1.59 2.22c1.41 1.41 3.42 2.64 6.51 2.64z"/>
	</g>
	<g aria-label="-0.25">
		<path d="m606.18 578.24h7.14v-2.52h-7.14z"/>
		<path d="m622.26 584.9c3.96 0 6.48-3.54 6.48-9.99 0-6.42-2.52-9.81-6.48-9.81s-6.48 3.36-6.48 9.81 2.52 9.99 6.48 9.99zm0-2.7c-1.83 0-3.18-1.89-3.18-7.29s1.35-7.11 3.18-7.11c1.86 0 3.18 1.71 3.18 7.11s-1.32 7.29-3.18 7.29z"/>
		<path d="m634.11 584.9c1.26 0 2.22-0.99 2.22-2.34s-0.96-2.34-2.22-2.34-2.25 0.99-2.25 2.34 0.99 2.34 2.25 2.34z"/>
		<path d="m639.36 584.54h12.9v-2.94h-4.68c-0.93 0-2.19 0.12-3.18 0.21 3.78-3.99 6.93-7.47 6.93-10.86 0-3.54-2.37-5.85-6.03-5.85-2.61 0-4.35 1.08-6.09 2.94l1.92 1.92c1.02-1.14 2.25-2.13 3.72-2.13 2.04 0 3.15 1.29 3.15 3.3 0 2.91-3.33 6.27-8.64 11.4z"/>
		<path d="m660.84 584.9c3.51 0 6.72-2.4 6.72-6.57 0-4.11-2.73-5.97-6-5.97-0.99 0-1.71 0.24-2.52 0.63l0.39-4.62h7.2v-2.91h-10.2l-0.57 9.42 1.65 1.05c1.14-0.75 1.83-1.08 3.06-1.08 2.1 0 3.51 1.29 3.51 3.57 0 2.31-1.56 3.66-3.69 3.66-1.92 0-3.33-0.96-4.47-2.04l-1.59 2.22c1.41 1.41 3.42 2.64 6.51 2.64z"/>
	</g>
	<g fill="#981b1b" aria-label="=0.60">
		<path d="m600 597.54h13.35v-2.52h-13.35zm0 6.72h13.35v-2.52h-13.35z"/>
		<path d="m622.05 609.9c3.96 0 6.48-3.54 6.48-9.99 0-6.42-2.52-9.81-6.48-9.81s-6.48 3.36-6.48 9.81 2.52 9.99 6.48 9.99zm0-2.7c-1.83 0-3.18-1.89-3.18-7.29s1.35-7.11 3.18-7.11c1.86 0 3.18 1.71 3.18 7.11s-1.32 7.29-3.18 7.29z"/>
		<path d="m633.9 609.9c1.26 0 2.22-0.99 2.22-2.34s-0.96-2.34-2.22-2.34-2.25 0.99-2.25 2.34 0.99 2.34 2.25 2.34z"/>
		<path d="m646.26 609.9c3.27 0 6-2.46 6-6.27 0-3.99-2.28-5.91-5.58-5.91-1.38 0-3.03 0.84-4.14 2.25 0.15-5.28 2.1-7.05 4.5-7.05 1.14 0 2.34 0.6 3.03 1.44l1.86-2.1c-1.14-1.2-2.79-2.16-5.1-2.16-3.9 0-7.5 3.06-7.5 10.47 0 6.42 3.18 9.33 6.93 9.33zm-0.06-2.64c-1.86 0-3.21-1.44-3.57-4.83 1.08-1.59 2.34-2.19 3.42-2.19 1.89 0 3 1.14 3 3.39 0 2.34-1.26 3.63-2.85 3.63z"/>
		<path d="m661.08 609.9c3.96 0 6.48-3.54 6.48-9.99 0-6.42-2.52-9.81-6.48-9.81s-6.48 3.36-6.48 9.81 2.52 9.99 6.48 9.99zm0-2.7c-1.83 0-3.18-1.89-3.18-7.29s1.35-7.11 3.18-7.11c1.86 0 3.18 1.71 3.18 7.11s-1.32 7.29-3.18 7.29z"/>
	</g>
	<g aria-label="0">
		<path d="m187.05 792.08c3.96 0 6.48-3.54 6.48-9.99 0-6.42-2.52-9.81-6.48-9.81s-6.48 3.36-6.48 9.81 2.52 9.99 6.48 9.99zm0-2.7c-1.83 0-3.18-1.89-3.18-7.29s1.35-7.11 3.18-7.11c1.86 0 3.18 1.71 3.18 7.11s-1.32 7.29-3.18 7.29z"/>
	</g>
	<g aria-label="1">
		<path d="m181.59 669.08h11.49v-2.82h-3.75v-16.26h-2.58c-1.2 0.72-2.52 1.2-4.41 1.56v2.16h3.51v12.54h-4.26z"/>
	</g>
	<g aria-label="weight">
		<path d="m603.9 693.96h3.96l1.68-6.84c0.33-1.38 0.6-2.76 0.87-4.32h0.12c0.33 1.56 0.57 2.91 0.9 4.29l1.71 6.87h4.11l3.75-14.73h-3.24l-1.77 7.65c-0.27 1.41-0.51 2.79-0.78 4.23h-0.12c-0.33-1.44-0.63-2.82-0.99-4.23l-1.95-7.65h-3.15l-1.92 7.65c-0.36 1.38-0.66 2.79-0.93 4.23h-0.12c-0.27-1.44-0.48-2.82-0.78-4.23l-1.77-7.65h-3.48z"/>
		<path d="m630.03 694.32c1.86 0 3.63-0.66 5.04-1.59l-1.17-2.16c-1.08 0.69-2.16 1.08-3.42 1.08-2.37 0-4.05-1.5-4.35-4.11h9.36c0.09-0.36 0.15-1.02 0.15-1.68 0-4.11-2.1-6.99-6.09-6.99-3.45 0-6.78 2.94-6.78 7.74 0 4.86 3.18 7.71 7.26 7.71zm-3.93-9.12c0.3-2.37 1.8-3.66 3.54-3.66 2.01 0 3 1.38 3 3.66z"/>
		<path d="m638.94 693.96h3.45v-14.73h-3.45zm1.74-17.31c1.23 0 2.13-0.81 2.13-1.95 0-1.17-0.9-1.98-2.13-1.98s-2.13 0.81-2.13 1.98c0 1.14 0.9 1.95 2.13 1.95z"/>
		<path d="m651.93 700.47c4.8 0 7.86-2.28 7.86-5.19 0-2.55-1.86-3.63-5.4-3.63h-2.61c-1.8 0-2.4-0.51-2.4-1.35 0-0.66 0.27-1.02 0.72-1.41 0.66 0.27 1.38 0.39 2.01 0.39 3.12 0 5.58-1.74 5.58-5.01 0-1.02-0.36-1.92-0.84-2.49h2.7v-2.55h-5.28c-0.6-0.21-1.35-0.36-2.16-0.36-3.09 0-5.82 1.89-5.82 5.28 0 1.74 0.93 3.15 1.92 3.9v0.12c-0.84 0.6-1.62 1.59-1.62 2.73 0 1.2 0.57 1.98 1.32 2.46v0.12c-1.35 0.84-2.1 1.92-2.1 3.15 0 2.58 2.61 3.84 6.12 3.84zm0.18-13.35c-1.44 0-2.58-1.08-2.58-2.97 0-1.86 1.14-2.91 2.58-2.91s2.55 1.08 2.55 2.91c0 1.89-1.14 2.97-2.55 2.97zm0.36 11.1c-2.34 0-3.78-0.78-3.78-2.1 0-0.69 0.36-1.35 1.14-1.95 0.57 0.15 1.2 0.21 2.01 0.21h2.01c1.68 0 2.61 0.33 2.61 1.47 0 1.26-1.62 2.37-3.99 2.37z"/>
		<path d="m662.4 693.96h3.45v-10.29c1.23-1.2 2.07-1.83 3.36-1.83 1.62 0 2.31 0.9 2.31 3.33v8.79h3.45v-9.24c0-3.72-1.38-5.85-4.53-5.85-2.01 0-3.48 1.05-4.71 2.22l0.12-2.85v-5.46h-3.45z"/>
		<path d="m684.33 694.32c1.17 0 2.19-0.27 3-0.54l-0.6-2.55c-0.42 0.18-1.02 0.33-1.53 0.33-1.41 0-2.07-0.84-2.07-2.58v-7.02h3.75v-2.73h-3.75v-4.02h-2.88l-0.42 4.02-2.28 0.15v2.58h2.1v7.02c0 3.18 1.26 5.34 4.68 5.34z"/>
	</g>
	<g fill="#090" aria-label="without AA">
		<path d="m603.9 735.98h3.96l1.68-6.84c0.33-1.38 0.6-2.76 0.87-4.32h0.12c0.33 1.56 0.57 2.91 0.9 4.29l1.71 6.87h4.11l3.75-14.73h-3.24l-1.77 7.65c-0.27 1.41-0.51 2.79-0.78 4.23h-0.12c-0.33-1.44-0.63-2.82-0.99-4.23l-1.95-7.65h-3.15l-1.92 7.65c-0.36 1.38-0.66 2.79-0.93 4.23h-0.12c-0.27-1.44-0.48-2.82-0.78-4.23l-1.77-7.65h-3.48z"/>
		<path d="m623.91 735.98h3.45v-14.73h-3.45zm1.74-17.31c1.23 0 2.13-0.81 2.13-1.95 0-1.17-0.9-1.98-2.13-1.98s-2.13 0.81-2.13 1.98c0 1.14 0.9 1.95 2.13 1.95z"/>
		<path d="m636.96 736.34c1.17 0 2.19-0.27 3-0.54l-0.6-2.55c-0.42 0.18-1.02 0.33-1.53 0.33-1.41 0-2.07-0.84-2.07-2.58v-7.02h3.75v-2.73h-3.75v-4.02h-2.88l-0.42 4.02-2.28 0.15v2.58h2.1v7.02c0 3.18 1.26 5.34 4.68 5.34z"/>
		<path d="m642.6 735.98h3.45v-10.29c1.23-1.2 2.07-1.83 3.36-1.83 1.62 0 2.31 0.9 2.31 3.33v8.79h3.45v-9.24c0-3.72-1.38-5.85-4.53-5.85-2.01 0-3.48 1.05-4.71 2.22l0.12-2.85v-5.46h-3.45z"/>
		<path d="m665.37 736.34c3.69 0 7.02-2.82 7.02-7.71 0-4.92-3.33-7.74-7.02-7.74-3.66 0-6.99 2.82-6.99 7.74 0 4.89 3.33 7.71 6.99 7.71zm0-2.82c-2.16 0-3.45-1.95-3.45-4.89 0-2.97 1.29-4.92 3.45-4.92s3.48 1.95 3.48 4.92c0 2.94-1.32 4.89-3.48 4.89z"/>
		<path d="m680.19 736.34c2.01 0 3.45-0.99 4.74-2.52h0.09l0.27 2.16h2.82v-14.73h-3.45v10.08c-1.11 1.44-1.98 2.04-3.27 2.04-1.59 0-2.28-0.9-2.28-3.33v-8.79h-3.45v9.24c0 3.72 1.38 5.85 4.53 5.85z"/>
		<path d="m697.68 736.34c1.17 0 2.19-0.27 3-0.54l-0.6-2.55c-0.42 0.18-1.02 0.33-1.53 0.33-1.41 0-2.07-0.84-2.07-2.58v-7.02h3.75v-2.73h-3.75v-4.02h-2.88l-0.42 4.02-2.28 0.15v2.58h2.1v7.02c0 3.18 1.26 5.34 4.68 5.34z"/>
		<path d="m713.64 725.54c0.63-2.07 1.2-4.29 1.74-6.48h0.12c0.57 2.16 1.14 4.41 1.77 6.48l0.69 2.4h-5.01zm-6.57 10.44h3.54l1.53-5.31h6.6l1.53 5.31h3.66l-6.39-19.62h-4.08z"/>
		<path d="m730.26 725.54c0.63-2.07 1.2-4.29 1.74-6.48h0.12c0.57 2.16 1.14 4.41 1.77 6.48l0.69 2.4h-5.01zm-6.57 10.44h3.54l1.53-5.31h6.6l1.53 5.31h3.66l-6.39-19.62h-4.08z"/>
	</g>
	<g fill="#001999" aria-label="with AA">
		<path d="m603.9 774.93h3.96l1.68-6.84c0.33-1.38 0.6-2.76 0.87-4.32h0.12c0.33 1.56 0.57 2.91 0.9 4.29l1.71 6.87h4.11l3.75-14.73h-3.24l-1.77 7.65c-0.27 1.41-0.51 2.79-0.78 4.23h-0.12c-0.33-1.44-0.63-2.82-0.99-4.23l-1.95-7.65h-3.15l-1.92 7.65c-0.36 1.38-0.66 2.79-0.93 4.23h-0.12c-0.27-1.44-0.48-2.82-0.78-4.23l-1.77-7.65h-3.48z"/>
		<path d="m623.91 774.93h3.45v-14.73h-3.45zm1.74-17.31c1.23 0 2.13-0.81 2.13-1.95 0-1.17-0.9-1.98-2.13-1.98s-2.13 0.81-2.13 1.98c0 1.14 0.9 1.95 2.13 1.95z"/>
		<path d="m636.96 775.29c1.17 0 2.19-0.27 3-0.54l-0.6-2.55c-0.42 0.18-1.02 0.33-1.53 0.33-1.41 0-2.07-0.84-2.07-2.58v-7.02h3.75v-2.73h-3.75v-4.02h-2.88l-0.42 4.02-2.28 0.15v2.58h2.1v7.02c0 3.18 1.26 5.34 4.68 5.34z"/>
		<path d="m642.6 774.93h3.45v-10.29c1.23-1.2 2.07-1.83 3.36-1.83 1.62 0 2.31 0.9 2.31 3.33v8.79h3.45v-9.24c0-3.72-1.38-5.85-4.53-5.85-2.01 0-3.48 1.05-4.71 2.22l0.12-2.85v-5.46h-3.45z"/>
		<path d="m669.66 764.49c0.63-2.07 1.2-4.29 1.74-6.48h0.12c0.57 2.16 1.14 4.41 1.77 6.48l0.69 2.4h-5.01zm-6.57 10.44h3.54l1.53-5.31h6.6l1.53 5.31h3.66l-6.39-19.62h-4.08z"/>
		<path d="m686.28 764.49c0.63-2.07 1.2-4.29 1.74-6.48h0.12c0.57 2.16 1.14 4.41 1.77 6.48l0.69 2.4h-5.01zm-6.57 10.44h3.54l1.53-5.31h6.6l1.53 5.31h3.66l-6.39-19.62h-4.08z"/>
	</g>
</svg>
