<?xml version="1.0" encoding="UTF-8"?>
<!-- Created with Inkscape (http://www.inkscape.org/) -->
<svg width="800" height="800" version="1.1" viewBox="0 0 800 800" xmlns="http://www.w3.org/2000/svg">
	<g transform="scale(1,1.6)">
		<rect width="800" height="500" fill="#fff" fill-opacity=".85"/>
	</g>
	<path d="m600 375c-150-425-396.72-431.46-550 0h50c98.279-323.46 350-325 450 0z" fill-opacity=".3" stop-color="#000000" style="font-variation-settings:normal"/>
	<path d="m600 375c-150-425-396.72-431.46-550 0" fill="none" stop-color="#000000" stroke="#ff981a" stroke-linecap="round" stroke-linejoin="round" stroke-width="4" style="font-variation-settings:normal"/>
	<path d="m550 375c-100-325-351.72-323.46-450 0" fill="none" stop-color="#000000" stroke="#ff981a" stroke-linecap="round" stroke-linejoin="round" stroke-width="4" style="font-variation-settings:normal"/>
	<g transform="translate(-158.5 -170.27)">
		<path d="m218.5 393.27a2 2 0 0 0-2 2 2 2 0 0 0 2 2h531.5a2 2 0 0 0 2-2 2 2 0 0 0-2-2z" color="#000000" stroke-linecap="round" stroke-linejoin="round" style="-inkscape-stroke:none"/>
		<path d="m739 381.27a2 2 0 0 0-1.4141 0.58593 2 2 0 0 0 0 2.8281l10.586 10.586-10.586 10.586a2 2 0 0 0 0 2.8281 2 2 0 0 0 2.8281 0l13.414-13.414-13.414-13.414a2 2 0 0 0-1.4141-0.58593z" color="#000000" stroke-linecap="round" style="-inkscape-stroke:none"/>
		<g fill-rule="evenodd">
			<path d="m227.32 395.27c0 4.8706-3.9529 8.8235-8.8235 8.8235s-8.8235-3.9529-8.8235-8.8235 4.0588-8.8235 8.8235-8.8235c4.8706 0 8.8235 3.9529 8.8235 8.8235z" color="#000000" stroke-width="1.7647pt" style="-inkscape-stroke:none"/>
			<path d="m218.5 385.27c-5.4154 0-10 4.4758-10 10 0 5.5071 4.4929 10 10 10s10-4.4929 10-10-4.4929-10-10-10zm0 2.3516c4.234 0 7.6465 3.4144 7.6465 7.6484s-3.4124 7.6465-7.6465 7.6465-7.6465-3.4124-7.6465-7.6465c0-4.217 3.5325-7.6484 7.6465-7.6484z" color="#000000" style="-inkscape-stroke:none"/>
		</g>
	</g>
	<g fill="#e57e00">
		<circle cx="116.25" cy="225" r="10"/>
		<circle cx="170.92" cy="225" r="10"/>
		<circle cx="478.6" cy="225" r="10"/>
		<circle cx="533.98" cy="225" r="10"/>
	</g>
	<g transform="rotate(169.55 649.35 408.06)">
		<g transform="rotate(-2.6811 649.19 436.76)" fill="#ff981a" fill-rule="evenodd">
			<path d="m689.52 435.52 18.072 23.913-29.773 3.6825z" color="#000000" stroke-width="3pt" style="-inkscape-stroke:none"/>
			<path d="m689.03 431.55-1.3496 3.1856-13.055 30.787 36.652-4.5332zm0.98047 7.9336 13.896 18.387-22.893 2.8301z" color="#000000" style="-inkscape-stroke:none"/>
		</g>
	</g>
	<g transform="rotate(208.48 386.49 487.38)">
		<g transform="rotate(-2.6811 649.19 436.76)" fill="#ff981a" fill-rule="evenodd">
			<path d="m689.52 435.52 18.072 23.913-29.773 3.6825z" color="#000000" stroke-width="3pt" style="-inkscape-stroke:none"/>
			<path d="m689.03 431.55-1.3496 3.1856-13.055 30.787 36.652-4.5332zm0.98047 7.9336 13.896 18.387-22.893 2.8301z" color="#000000" style="-inkscape-stroke:none"/>
		</g>
	</g>
	<path d="m50 425c150 425 396.72 431.46 550 0h-50c-98.279 323.46-350 325-450 0z" fill-opacity=".3" stop-color="#000000" style="font-variation-settings:normal"/>
	<path d="m50 425c150 425 396.72 431.46 550 0" fill="none" stop-color="#000000" stroke="#ff981a" stroke-linecap="round" stroke-linejoin="round" stroke-width="4" style="font-variation-settings:normal"/>
	<path d="m100 425c100 325 351.72 323.46 450 0" fill="none" stop-color="#000000" stroke="#ff981a" stroke-linecap="round" stroke-linejoin="round" stroke-width="4" style="font-variation-settings:normal"/>
	<g transform="rotate(-10.45 236.84 3946.7)">
		<g transform="rotate(-2.6811 649.19 436.76)" fill="#ff981a" fill-rule="evenodd">
			<path d="m689.52 435.52 18.072 23.913-29.773 3.6825z" color="#000000" stroke-width="3pt" style="-inkscape-stroke:none"/>
			<path d="m689.03 431.55-1.3496 3.1856-13.055 30.787 36.652-4.5332zm0.98047 7.9336 13.896 18.387-22.893 2.8301z" color="#000000" style="-inkscape-stroke:none"/>
		</g>
	</g>
	<g transform="rotate(28.484 669.26 157.76)">
		<g transform="rotate(-2.6811 649.19 436.76)" fill="#ff981a" fill-rule="evenodd">
			<path d="m689.52 435.52 18.072 23.913-29.773 3.6825z" color="#000000" stroke-width="3pt" style="-inkscape-stroke:none"/>
			<path d="m689.03 431.55-1.3496 3.1856-13.055 30.787 36.652-4.5332zm0.98047 7.9336 13.896 18.387-22.893 2.8301z" color="#000000" style="-inkscape-stroke:none"/>
		</g>
	</g>
	<g transform="translate(-158.5 179.73)">
		<path d="m218.5 393.27a2 2 0 0 0-2 2 2 2 0 0 0 2 2h531.5a2 2 0 0 0 2-2 2 2 0 0 0-2-2z" color="#000000" stroke-linecap="round" stroke-linejoin="round" style="-inkscape-stroke:none"/>
		<path d="m739 381.27a2 2 0 0 0-1.4141 0.58593 2 2 0 0 0 0 2.8281l10.586 10.586-10.586 10.586a2 2 0 0 0 0 2.8281 2 2 0 0 0 2.8281 0l13.414-13.414-13.414-13.414a2 2 0 0 0-1.4141-0.58593z" color="#000000" stroke-linecap="round" style="-inkscape-stroke:none"/>
		<g fill-rule="evenodd">
			<path d="m227.32 395.27c0 4.8706-3.9529 8.8235-8.8235 8.8235s-8.8235-3.9529-8.8235-8.8235 4.0588-8.8235 8.8235-8.8235c4.8706 0 8.8235 3.9529 8.8235 8.8235z" color="#000000" stroke-width="1.7647pt" style="-inkscape-stroke:none"/>
			<path d="m218.5 385.27c-5.4154 0-10 4.4758-10 10 0 5.5071 4.4929 10 10 10s10-4.4929 10-10-4.4929-10-10-10zm0 2.3516c4.234 0 7.6465 3.4144 7.6465 7.6484s-3.4124 7.6465-7.6465 7.6465-7.6465-3.4124-7.6465-7.6465c0-4.217 3.5325-7.6484 7.6465-7.6484z" color="#000000" style="-inkscape-stroke:none"/>
		</g>
	</g>
	<g fill="#e57e00">
		<circle cx="116.25" cy="575" r="10"/>
		<circle cx="170.92" cy="575" r="10"/>
		<circle cx="478.6" cy="575" r="10"/>
		<circle cx="533.98" cy="575" r="10"/>
	</g>
	<g display="none" font-size="40px" text-anchor="middle">
		<text x="700.328" y="558.10651" font-family="'Source Sans Pro'" font-weight="600" text-align="center" style="line-height:1.25" xml:space="preserve"><tspan x="700.328" y="558.10651" text-align="center">a &gt; 0</tspan><tspan x="700.328" y="609.50153" text-align="center">t<tspan baseline-shift="sub" font-size="65%" text-align="center" text-anchor="middle">0</tspan> ≤ t<tspan baseline-shift="sub" font-size="65%" text-align="center" text-anchor="middle">1</tspan></tspan></text>
		<text x="700.328" y="208.10649" font-family="'Source Sans Pro'" font-weight="600" text-align="center" style="line-height:1.25" xml:space="preserve"><tspan x="700.328" y="208.10649" text-align="center">a &lt; 0</tspan><tspan x="700.328" y="259.5015" text-align="center">t<tspan baseline-shift="sub" font-size="65%" text-align="center" text-anchor="middle">0</tspan> ≥ t<tspan baseline-shift="sub" font-size="65%" text-align="center" text-anchor="middle">1</tspan></tspan></text>
		<text x="93.814293" y="207" font-family="sans-serif" text-align="center" style="line-height:1.25" xml:space="preserve"><tspan x="93.814293" y="207" font-family="'Source Sans Pro'" font-size="40px" font-weight="600" text-align="center" text-anchor="middle">t<tspan baseline-shift="sub" font-size="65%" text-align="center" text-anchor="middle">1</tspan></tspan></text>
		<text x="194.01186" y="260" font-family="sans-serif" text-align="center" style="line-height:1.25" xml:space="preserve"><tspan x="194.01186" y="260" font-family="'Source Sans Pro'" font-size="40px" font-weight="600" text-align="center" text-anchor="middle">t<tspan baseline-shift="sub" font-size="65%">0</tspan></tspan></text>
		<text x="456.1687" y="260" font-family="sans-serif" text-align="center" style="line-height:1.25" xml:space="preserve"><tspan x="456.1687" y="260" font-family="'Source Sans Pro'" font-size="40px" font-weight="600" text-align="center" text-anchor="middle">t<tspan baseline-shift="sub" font-size="65%" text-align="center" text-anchor="middle">1</tspan></tspan></text>
		<text x="557.07135" y="610" font-family="sans-serif" text-align="center" style="line-height:1.25" xml:space="preserve"><tspan x="557.07135" y="610" font-family="'Source Sans Pro'" font-size="40px" font-weight="600" text-align="center" text-anchor="middle">t<tspan baseline-shift="sub" font-size="65%">0</tspan></tspan></text>
		<text x="557.07135" y="206.688" font-family="sans-serif" text-align="center" style="line-height:1.25" xml:space="preserve"><tspan x="557.07135" y="206.688" font-family="'Source Sans Pro'" font-size="40px" font-weight="600" text-align="center" text-anchor="middle">t<tspan baseline-shift="sub" font-size="65%">0</tspan></tspan></text>
		<text x="194.01186" y="556.68799" font-family="sans-serif" text-align="center" style="line-height:1.25" xml:space="preserve"><tspan x="194.01186" y="556.68799" font-family="'Source Sans Pro'" font-size="40px" font-weight="600" text-align="center" text-anchor="middle">t<tspan baseline-shift="sub" font-size="65%">0</tspan></tspan></text>
		<text x="93.814293" y="610" font-family="sans-serif" text-align="center" style="line-height:1.25" xml:space="preserve"><tspan x="93.814293" y="610" font-family="'Source Sans Pro'" font-size="40px" font-weight="600" text-align="center" text-anchor="middle">t<tspan baseline-shift="sub" font-size="65%" text-align="center" text-anchor="middle">1</tspan></tspan></text>
		<text x="456.1687" y="557" font-family="sans-serif" text-align="center" style="line-height:1.25" xml:space="preserve"><tspan x="456.1687" y="557" font-family="'Source Sans Pro'" font-size="40px" font-weight="600" text-align="center" text-anchor="middle">t<tspan baseline-shift="sub" font-size="65%" text-align="center" text-anchor="middle">1</tspan></tspan></text>
	</g>
	<g>
		<g aria-label="a &gt; 0 t0 ≤ t1">
			<path d="m669.17 558.59c2.32 0 4.32-1.16 6.08-2.64h0.16l0.32 2.16h3.8v-11.64c0-5.48-2.44-8.48-7.32-8.48-3.12 0-5.92 1.2-8.08 2.56l1.68 3.08c1.76-1.04 3.6-1.92 5.52-1.92 2.68 0 3.52 1.76 3.6 3.84-8.08 0.88-11.56 3.08-11.56 7.28 0 3.44 2.36 5.76 5.8 5.76zm1.48-3.6c-1.64 0-2.84-0.76-2.84-2.52 0-1.96 1.76-3.36 7.12-4.04v4.4c-1.48 1.36-2.68 2.16-4.28 2.16z"/>
			<path d="m691.49 553.43 17.8-6.92v-3.36l-17.8-6.92v3.88l7.72 2.72 5.4 1.92v0.16l-5.4 1.92-7.72 2.72z"/>
			<path d="m728.89 558.59c5.28 0 8.64-4.72 8.64-13.32 0-8.56-3.36-13.08-8.64-13.08s-8.64 4.48-8.64 13.08 3.36 13.32 8.64 13.32zm0-3.6c-2.44 0-4.24-2.52-4.24-9.72s1.8-9.48 4.24-9.48c2.48 0 4.24 2.28 4.24 9.48s-1.76 9.72-4.24 9.72z"/>
			<path d="m664.13 609.98c1.56 0 2.92-0.36 4-0.72l-0.8-3.4c-0.56 0.24-1.36 0.44-2.04 0.44-1.88 0-2.76-1.12-2.76-3.44v-9.36h5v-3.64h-5v-5.36h-3.84l-0.56 5.36-3.04 0.2v3.44h2.8v9.36c0 4.24 1.68 7.12 6.24 7.12z"/>
			<path d="m675.39 617.81c3.432 0 5.616-3.068 5.616-8.658 0-5.564-2.184-8.502-5.616-8.502s-5.616 2.912-5.616 8.502 2.184 8.658 5.616 8.658zm0-2.34c-1.586 0-2.756-1.638-2.756-6.318s1.17-6.162 2.756-6.162c1.612 0 2.756 1.482 2.756 6.162s-1.144 6.318-2.756 6.318z" baseline-shift="sub"/>
			<path d="m709.23 603.38v-3.88l-7.64-2.36-5.48-1.56v-0.16l5.48-1.56 7.64-2.36v-3.88l-17.8 5.92v3.92zm-17.8 6.12h17.8v-3.32h-17.8z"/>
			<path d="m728.43 609.98c1.56 0 2.92-0.36 4-0.72l-0.8-3.4c-0.56 0.24-1.36 0.44-2.04 0.44-1.88 0-2.76-1.12-2.76-3.44v-9.36h5v-3.64h-5v-5.36h-3.84l-0.56 5.36-3.04 0.2v3.44h2.8v9.36c0 4.24 1.68 7.12 6.24 7.12z"/>
			<path d="m734.95 617.5h9.958v-2.444h-3.25v-14.092h-2.236c-1.04 0.624-2.184 1.04-3.822 1.352v1.872h3.042v10.868h-3.692z" baseline-shift="sub"/>
		</g>
		<g aria-label="a &lt; 0 t0 ≥ t1">
			<path d="m669.17 208.59c2.32 0 4.32-1.16 6.08-2.64h0.16l0.32 2.16h3.8v-11.64c0-5.48-2.44-8.48-7.32-8.48-3.12 0-5.92 1.2-8.08 2.56l1.68 3.08c1.76-1.04 3.6-1.92 5.52-1.92 2.68 0 3.52 1.76 3.6 3.84-8.08 0.88-11.56 3.08-11.56 7.28 0 3.44 2.36 5.76 5.8 5.76zm1.48-3.6c-1.64 0-2.84-0.76-2.84-2.52 0-1.96 1.76-3.36 7.12-4.04v4.4c-1.48 1.36-2.68 2.16-4.28 2.16z"/>
			<path d="m709.29 203.43v-3.88l-7.72-2.72-5.4-1.92v-0.16l5.4-1.92 7.72-2.72v-3.88l-17.8 6.92v3.36z"/>
			<path d="m728.89 208.59c5.28 0 8.64-4.72 8.64-13.32 0-8.56-3.36-13.08-8.64-13.08s-8.64 4.48-8.64 13.08 3.36 13.32 8.64 13.32zm0-3.6c-2.44 0-4.24-2.52-4.24-9.72s1.8-9.48 4.24-9.48c2.48 0 4.24 2.28 4.24 9.48s-1.76 9.72-4.24 9.72z"/>
			<path d="m664.13 259.98c1.56 0 2.92-0.36 4-0.72l-0.8-3.4c-0.56 0.24-1.36 0.44-2.04 0.44-1.88 0-2.76-1.12-2.76-3.44v-9.36h5v-3.64h-5v-5.36h-3.84l-0.56 5.36-3.04 0.2v3.44h2.8v9.36c0 4.24 1.68 7.12 6.24 7.12z"/>
			<path d="m675.39 267.81c3.432 0 5.616-3.068 5.616-8.658 0-5.564-2.184-8.502-5.616-8.502s-5.616 2.912-5.616 8.502 2.184 8.658 5.616 8.658zm0-2.34c-1.586 0-2.756-1.638-2.756-6.318s1.17-6.162 2.756-6.162c1.612 0 2.756 1.482 2.756 6.162s-1.144 6.318-2.756 6.318z" baseline-shift="sub"/>
			<path d="m691.43 253.38 17.8-5.92v-3.92l-17.8-5.92v3.88l7.64 2.36 5.48 1.56v0.16l-5.48 1.56-7.64 2.36zm0 6.12h17.8v-3.32h-17.8z"/>
			<path d="m728.43 259.98c1.56 0 2.92-0.36 4-0.72l-0.8-3.4c-0.56 0.24-1.36 0.44-2.04 0.44-1.88 0-2.76-1.12-2.76-3.44v-9.36h5v-3.64h-5v-5.36h-3.84l-0.56 5.36-3.04 0.2v3.44h2.8v9.36c0 4.24 1.68 7.12 6.24 7.12z"/>
			<path d="m734.95 267.5h9.958v-2.444h-3.25v-14.092h-2.236c-1.04 0.624-2.184 1.04-3.822 1.352v1.872h3.042v10.868h-3.692z" baseline-shift="sub"/>
		</g>
		<g aria-label="t1">
			<path d="m89.765 207.48c1.56 0 2.92-0.36 4-0.72l-0.8-3.4c-0.56 0.24-1.36 0.44-2.04 0.44-1.88 0-2.76-1.12-2.76-3.44v-9.36h5v-3.64h-5v-5.36h-3.84l-0.56 5.36-3.04 0.2v3.44h2.8v9.36c0 4.24 1.68 7.12 6.24 7.12z"/>
			<path d="m96.289 215h9.958v-2.444h-3.25v-14.092h-2.236c-1.04 0.624-2.184 1.04-3.822 1.352v1.872h3.042v10.868h-3.692z" baseline-shift="sub"/>
		</g>
		<g aria-label="t0">
			<path d="m189.96 260.48c1.56 0 2.92-0.36 4-0.72l-0.8-3.4c-0.56 0.24-1.36 0.44-2.04 0.44-1.88 0-2.76-1.12-2.76-3.44v-9.36h5v-3.64h-5v-5.36h-3.84l-0.56 5.36-3.04 0.2v3.44h2.8v9.36c0 4.24 1.68 7.12 6.24 7.12z"/>
			<path d="m201.22 268.31c3.432 0 5.616-3.068 5.616-8.658 0-5.564-2.184-8.502-5.616-8.502s-5.616 2.912-5.616 8.502 2.184 8.658 5.616 8.658zm0-2.34c-1.586 0-2.756-1.638-2.756-6.318s1.17-6.162 2.756-6.162c1.612 0 2.756 1.482 2.756 6.162s-1.144 6.318-2.756 6.318z" baseline-shift="sub"/>
		</g>
		<g aria-label="t1">
			<path d="m452.12 260.48c1.56 0 2.92-0.36 4-0.72l-0.8-3.4c-0.56 0.24-1.36 0.44-2.04 0.44-1.88 0-2.76-1.12-2.76-3.44v-9.36h5v-3.64h-5v-5.36h-3.84l-0.56 5.36-3.04 0.2v3.44h2.8v9.36c0 4.24 1.68 7.12 6.24 7.12z"/>
			<path d="m458.64 268h9.958v-2.444h-3.25v-14.092h-2.236c-1.04 0.624-2.184 1.04-3.822 1.352v1.872h3.042v10.868h-3.692z" baseline-shift="sub"/>
		</g>
		<g aria-label="t0">
			<path d="m553.02 610.48c1.56 0 2.92-0.36 4-0.72l-0.8-3.4c-0.56 0.24-1.36 0.44-2.04 0.44-1.88 0-2.76-1.12-2.76-3.44v-9.36h5v-3.64h-5v-5.36h-3.84l-0.56 5.36-3.04 0.2v3.44h2.8v9.36c0 4.24 1.68 7.12 6.24 7.12z"/>
			<path d="m564.28 618.31c3.432 0 5.616-3.068 5.616-8.658 0-5.564-2.184-8.502-5.616-8.502s-5.616 2.912-5.616 8.502 2.184 8.658 5.616 8.658zm0-2.34c-1.586 0-2.756-1.638-2.756-6.318s1.17-6.162 2.756-6.162c1.612 0 2.756 1.482 2.756 6.162s-1.144 6.318-2.756 6.318z" baseline-shift="sub"/>
			<path d="m553.02 207.17c1.56 0 2.92-0.36 4-0.72l-0.8-3.4c-0.56 0.24-1.36 0.44-2.04 0.44-1.88 0-2.76-1.12-2.76-3.44v-9.36h5v-3.64h-5v-5.36h-3.84l-0.56 5.36-3.04 0.2v3.44h2.8v9.36c0 4.24 1.68 7.12 6.24 7.12z"/>
			<path d="m564.28 215c3.432 0 5.616-3.068 5.616-8.658 0-5.564-2.184-8.502-5.616-8.502s-5.616 2.912-5.616 8.502 2.184 8.658 5.616 8.658zm0-2.34c-1.586 0-2.756-1.638-2.756-6.318s1.17-6.162 2.756-6.162c1.612 0 2.756 1.482 2.756 6.162s-1.144 6.318-2.756 6.318z" baseline-shift="sub"/>
			<path d="m189.96 557.17c1.56 0 2.92-0.36 4-0.72l-0.8-3.4c-0.56 0.24-1.36 0.44-2.04 0.44-1.88 0-2.76-1.12-2.76-3.44v-9.36h5v-3.64h-5v-5.36h-3.84l-0.56 5.36-3.04 0.2v3.44h2.8v9.36c0 4.24 1.68 7.12 6.24 7.12z"/>
			<path d="m201.22 565c3.432 0 5.616-3.068 5.616-8.658 0-5.564-2.184-8.502-5.616-8.502s-5.616 2.912-5.616 8.502 2.184 8.658 5.616 8.658zm0-2.34c-1.586 0-2.756-1.638-2.756-6.318s1.17-6.162 2.756-6.162c1.612 0 2.756 1.482 2.756 6.162s-1.144 6.318-2.756 6.318z" baseline-shift="sub"/>
		</g>
		<g aria-label="t1">
			<path d="m89.765 610.48c1.56 0 2.92-0.36 4-0.72l-0.8-3.4c-0.56 0.24-1.36 0.44-2.04 0.44-1.88 0-2.76-1.12-2.76-3.44v-9.36h5v-3.64h-5v-5.36h-3.84l-0.56 5.36-3.04 0.2v3.44h2.8v9.36c0 4.24 1.68 7.12 6.24 7.12z"/>
			<path d="m96.289 618h9.958v-2.444h-3.25v-14.092h-2.236c-1.04 0.624-2.184 1.04-3.822 1.352v1.872h3.042v10.868h-3.692z" baseline-shift="sub"/>
			<path d="m452.12 557.48c1.56 0 2.92-0.36 4-0.72l-0.8-3.4c-0.56 0.24-1.36 0.44-2.04 0.44-1.88 0-2.76-1.12-2.76-3.44v-9.36h5v-3.64h-5v-5.36h-3.84l-0.56 5.36-3.04 0.2v3.44h2.8v9.36c0 4.24 1.68 7.12 6.24 7.12z"/>
			<path d="m458.64 565h9.958v-2.444h-3.25v-14.092h-2.236c-1.04 0.624-2.184 1.04-3.822 1.352v1.872h3.042v10.868h-3.692z" baseline-shift="sub"/>
		</g>
	</g>
</svg>
