<?xml version="1.0" encoding="UTF-8"?>
<!-- Created with Inkscape (http://www.inkscape.org/) -->
<svg width="800" height="500" version="1.1" viewBox="0 0 800 500" xmlns="http://www.w3.org/2000/svg">
	<rect width="800" height="500" fill="#fff" fill-opacity=".85"/>
	<path d="m-529.97 1859.2h235.23v-736.86h306.08c408.11 0 685.85-184.21 685.85-575.32 0-408.11-280.57-546.98-697.18-546.98h-529.97zm235.23-929.58v-739.69h266.4c325.92 0 490.3 87.856 490.3 357.09 0 263.57-155.87 382.6-478.96 382.6z" fill-opacity=".3" stroke-width="7.0852"/>
	<g>
		<path d="m345.07 147.2a2 2 0 0 0-2 2 2 2 0 0 0 2 2h404.93a2 2 0 0 0 2-2 2 2 0 0 0-2-2z" color="#000000" stroke-linecap="round" stroke-linejoin="round" style="-inkscape-stroke:none"/>
		<path d="m739 135.2a2 2 0 0 0-1.4141 0.58594 2 2 0 0 0 0 2.8281l10.586 10.586-10.586 10.586a2 2 0 0 0 0 2.8281 2 2 0 0 0 2.8281 0l13.414-13.414-13.414-13.414a2 2 0 0 0-1.4141-0.58594z" color="#000000" stroke-linecap="round" style="-inkscape-stroke:none"/>
		<g fill-rule="evenodd">
			<path d="m353.89 149.2c0 4.8706-3.9529 8.8235-8.8235 8.8235s-8.8235-3.9529-8.8235-8.8235 4.0588-8.8235 8.8235-8.8235c4.8706 0 8.8235 3.9529 8.8235 8.8235z" color="#000000" stroke-width="1.7647pt" style="-inkscape-stroke:none"/>
			<path d="m345.07 139.2c-5.4154 0-10 4.4758-10 10 0 5.5071 4.4929 10 10 10s10-4.4929 10-10-4.4929-10-10-10zm0 2.3535c4.234 0 7.6465 3.4124 7.6465 7.6465s-3.4124 7.6465-7.6465 7.6465-7.6465-3.4124-7.6465-7.6465c0-4.217 3.5325-7.6465 7.6465-7.6465z" color="#000000" style="-inkscape-stroke:none"/>
		</g>
	</g>
	<g>
		<path d="m218.5 393.27a2 2 0 0 0-2 2 2 2 0 0 0 2 2h531.5a2 2 0 0 0 2-2 2 2 0 0 0-2-2z" color="#000000" stroke-linecap="round" stroke-linejoin="round" style="-inkscape-stroke:none"/>
		<path d="m739 381.27a2 2 0 0 0-1.4141 0.58593 2 2 0 0 0 0 2.8281l10.586 10.586-10.586 10.586a2 2 0 0 0 0 2.8281 2 2 0 0 0 2.8281 0l13.414-13.414-13.414-13.414a2 2 0 0 0-1.4141-0.58593z" color="#000000" stroke-linecap="round" style="-inkscape-stroke:none"/>
		<g fill-rule="evenodd">
			<path d="m227.32 395.27c0 4.8706-3.9529 8.8235-8.8235 8.8235s-8.8235-3.9529-8.8235-8.8235 4.0588-8.8235 8.8235-8.8235c4.8706 0 8.8235 3.9529 8.8235 8.8235z" color="#000000" stroke-width="1.7647pt" style="-inkscape-stroke:none"/>
			<path d="m218.5 385.27c-5.4154 0-10 4.4758-10 10 0 5.5071 4.4929 10 10 10s10-4.4929 10-10-4.4929-10-10-10zm0 2.3516c4.234 0 7.6465 3.4144 7.6465 7.6484s-3.4124 7.6465-7.6465 7.6465-7.6465-3.4124-7.6465-7.6465c0-4.217 3.5325-7.6484 7.6465-7.6484z" color="#000000" style="-inkscape-stroke:none"/>
		</g>
	</g>
	<path d="m470.93 95.371-3.0156 5.1855c53.682 31.226 87.586 62.262 117.81 97.668l4.5625-3.8965c-30.537-35.777-65.125-67.414-119.35-98.957z" color="#000000" fill="#ff981a" stroke-linejoin="round" style="-inkscape-stroke:none"/>
	<g transform="rotate(181.92 588.12 196.53)">
		<g fill="#ff981a" fill-rule="evenodd">
			<path d="m576.77 183.11 28.256 9.9997-22.818 19.476z" color="#000000" stroke-width="3pt" style="-inkscape-stroke:none"/>
			<path d="m574.17 180.07 0.62696 3.4024 6.0664 32.885 28.092-23.977zm5.1875 6.0801 21.727 7.6894-17.543 14.975z" color="#000000" style="-inkscape-stroke:none"/>
		</g>
	</g>
	<circle cx="541.62" cy="149.2" r="10" fill="#e57e00"/>
	<path d="m670.68 341.61-5.7207 1.8066c11.285 35.74 18.603 68.342 23.713 109.65l5.9551-0.73633c-5.148-41.623-12.571-74.693-23.947-110.72z" color="#000000" fill="#ff981a" stroke-linejoin="round" style="-inkscape-stroke:none"/>
	<g transform="rotate(183.39 692.07 452.21)">
		<g transform="rotate(-2.6811 649.19 436.76)" fill="#ff981a" fill-rule="evenodd">
			<path d="m689.52 435.52 18.072 23.913-29.773 3.6825z" color="#000000" stroke-width="3pt" style="-inkscape-stroke:none"/>
			<path d="m689.03 431.55-1.3496 3.1856-13.055 30.787 36.652-4.5332zm0.98047 7.9336 13.896 18.387-22.893 2.8301z" color="#000000" style="-inkscape-stroke:none"/>
		</g>
	</g>
	<circle cx="682.02" cy="395.27" r="10" fill="#e57e00"/>
	<path d="m416.06 342.66-5.1133 3.1387c20.59 33.529 31.306 65.145 39.842 106.33l5.875-1.2188c-8.6155-41.569-19.617-74.078-40.604-108.25z" color="#000000" fill="#ff981a" stroke-linejoin="round" style="-inkscape-stroke:none"/>
	<g transform="rotate(-2.4825 418.58 344.52)">
		<g fill="#ff981a" fill-rule="evenodd">
			<path d="m404.44 329.48 26.362 14.264-25.564 15.699z" color="#000000" stroke-width="3pt" style="-inkscape-stroke:none"/>
			<path d="m402.35 326.07 0.0918 3.457 0.88867 33.428 31.473-19.326zm4.1816 6.8106 20.271 10.969-19.658 12.072z" color="#000000" style="-inkscape-stroke:none"/>
		</g>
	</g>
	<circle cx="438.36" cy="395.27" r="10" fill="#e57e00"/>
	<g transform="translate(21.036)" aria-label="+1">
		<path d="m527.75 120.24h3.48v-7.56h7.16v-3.36h-7.16v-7.56h-3.48v7.56h-7.16v3.36h7.16z"/>
		<path d="m542.71 124.2h15.32v-3.76h-5v-21.68h-3.44c-1.6 0.96-3.36 1.6-5.88 2.08v2.88h4.68v16.72h-5.68z"/>
	</g>
	<g transform="translate(18.72 1e-5)" aria-label="+1">
		<path d="m670.89 366.31h3.48v-7.56h7.16v-3.36h-7.16v-7.56h-3.48v7.56h-7.16v3.36h7.16z"/>
		<path d="m685.85 370.27h15.32v-3.76h-5v-21.68h-3.44c-1.6 0.96-3.36 1.6-5.88 2.08v2.88h4.68v16.72h-5.68z"/>
	</g>
	<g transform="translate(14.74 1e-5)" aria-label="-1">
		<path d="m423.62 361.87h9.52v-3.36h-9.52z"/>
		<path d="m437.78 370.27h15.32v-3.76h-5v-21.68h-3.44c-1.6 0.96-3.36 1.6-5.88 2.08v2.88h4.68v16.72h-5.68z"/>
	</g>
	<g fill="#981b1b" aria-label="1">
		<path d="m337.41 124.2h15.32v-3.76h-5v-21.68h-3.44c-1.6 0.96-3.36 1.6-5.88 2.08v2.88h4.68v16.72h-5.68z"/>
	</g>
	<g fill="#981b1b" aria-label="0">
		<path d="m218.5 370.75c5.28 0 8.64-4.72 8.64-13.32 0-8.56-3.36-13.08-8.64-13.08s-8.64 4.48-8.64 13.08 3.36 13.32 8.64 13.32zm0-3.6c-2.44 0-4.24-2.52-4.24-9.72s1.8-9.48 4.24-9.48c2.48 0 4.24 2.28 4.24 9.48s-1.76 9.72-4.24 9.72z"/>
	</g>
</svg>
